<?xml version="1.0" encoding="utf-8"?>
<!-- Generator: Adobe Illustrator 16.0.0, SVG Export Plug-In . SVG Version: 6.00 Build 0)  -->
<!DOCTYPE svg PUBLIC "-//W3C//DTD SVG 1.1//EN" "http://www.w3.org/Graphics/SVG/1.1/DTD/svg11.dtd">
<svg version="1.1" id="Layer_1" xmlns="http://www.w3.org/2000/svg" xmlns:xlink="http://www.w3.org/1999/xlink" x="0px" y="0px"
	 width="130px" height="130px" viewBox="0 0 130 130" enable-background="new 0 0 130 130" xml:space="preserve">
<g>
	<g>
		<g>
			<polygon fill="#934D2A" points="105.433,32.084 105.433,101.563 62.876,126.133 62.876,56.658 			"/>
			<polygon fill="#70371D" points="20.314,32.084 20.314,101.563 62.876,126.133 62.876,56.658 			"/>
			<polygon fill="#CCC292" points="105.433,28.275 105.433,97.754 62.876,122.323 62.876,52.849 			"/>
			<polyline fill="#C1B987" points="62.876,122.323 62.876,52.849 105.433,28.275 			"/>
			<polygon fill="#998F68" points="20.314,28.275 20.314,97.754 62.876,122.323 62.876,52.849 			"/>
			<polyline fill="#91885E" points="62.876,122.323 62.876,52.849 20.314,28.275 			"/>
			<g>
				<g>
					<polygon fill="#934D2A" points="108.246,27.196 108.246,29.36 62.879,55.552 62.879,53.391 					"/>
					<polygon fill="#70371D" points="17.508,27.196 17.508,29.36 62.879,55.552 62.879,53.391 					"/>
					<g>
						<polygon fill="#A0502D" points="62.879,1 108.246,27.196 62.879,53.391 17.508,27.196 						"/>
					</g>
				</g>
			</g>
			<g>
				<polygon fill="#42200D" points="62.876,2.622 105.433,27.194 62.876,51.769 20.314,27.194 				"/>
				<polyline fill="#381D0B" points="62.876,2.622 105.433,27.194 62.876,51.769 				"/>
				<polygon fill="#4C2511" points="62.876,8.068 105.433,27.194 62.876,51.769 20.314,27.194 				"/>
				<polygon fill="#592E16" points="62.876,8.068 62.876,51.769 105.433,27.194 				"/>
			</g>
		</g>
	</g>
	<g>
		<g>
			<polygon fill="#3AA3D8" points="48.361,110.627 56.913,115.56 56.913,102.3 48.361,97.37 			"/>
			<polygon fill="#2585CC" points="49.241,110.153 56.913,114.585 56.913,102.3 49.241,97.874 			"/>
			<polyline fill="#1676BF" points="56.913,114.585 56.913,102.3 49.241,97.874 			"/>
		</g>
		<g>
			<polygon fill="#3AA3D8" points="36.433,103.702 44.984,108.634 44.984,95.374 36.433,90.445 			"/>
			<polygon fill="#2585CC" points="37.313,103.229 44.984,107.659 44.984,95.374 37.313,90.947 			"/>
			<polyline fill="#1676BF" points="44.984,107.659 44.984,95.374 37.313,90.947 			"/>
		</g>
		<g>
			<polygon fill="#3AA3D8" points="24.504,96.776 33.055,101.708 33.055,88.448 24.504,83.52 			"/>
			<polygon fill="#2585CC" points="25.383,96.303 33.055,100.734 33.055,88.448 25.383,84.021 			"/>
			<polyline fill="#1676BF" points="33.055,100.734 33.055,88.448 25.383,84.021 			"/>
		</g>
	</g>
	<g>
		<g>
			<polygon fill="#3AA3D8" points="48.361,89.416 56.913,94.349 56.913,81.089 48.361,76.159 			"/>
			<polygon fill="#2585CC" points="49.241,88.942 56.913,93.374 56.913,81.089 49.241,76.662 			"/>
			<polyline fill="#1676BF" points="56.913,93.374 56.913,81.089 49.241,76.662 			"/>
		</g>
		<g>
			<polygon fill="#3AA3D8" points="36.433,82.491 44.984,87.423 44.984,74.163 36.433,69.234 			"/>
			<polygon fill="#2585CC" points="37.313,82.018 44.984,86.447 44.984,74.163 37.313,69.736 			"/>
			<polyline fill="#1676BF" points="44.984,86.447 44.984,74.163 37.313,69.736 			"/>
		</g>
		<g>
			<polygon fill="#3AA3D8" points="24.504,75.565 33.055,80.496 33.055,67.237 24.504,62.309 			"/>
			<polygon fill="#2585CC" points="25.383,75.092 33.055,79.523 33.055,67.237 25.383,62.81 			"/>
			<polyline fill="#1676BF" points="33.055,79.523 33.055,67.237 25.383,62.81 			"/>
		</g>
	</g>
	<g>
		<g>
			<polygon fill="#3AA3D8" points="48.361,68.204 56.913,73.138 56.913,59.878 48.361,54.947 			"/>
			<polygon fill="#2585CC" points="49.241,67.731 56.913,72.162 56.913,59.878 49.241,55.451 			"/>
			<polyline fill="#1676BF" points="56.913,72.162 56.913,59.878 49.241,55.451 			"/>
		</g>
		<g>
			<polygon fill="#3AA3D8" points="36.433,61.28 44.984,66.211 44.984,52.951 36.433,48.023 			"/>
			<polygon fill="#2585CC" points="37.313,60.807 44.984,65.236 44.984,52.951 37.313,48.524 			"/>
			<polyline fill="#1676BF" points="44.984,65.236 44.984,52.951 37.313,48.524 			"/>
		</g>
		<g>
			<polygon fill="#3AA3D8" points="24.504,54.354 33.055,59.285 33.055,46.025 24.504,41.097 			"/>
			<polygon fill="#2585CC" points="25.383,53.881 33.055,58.312 33.055,46.025 25.383,41.599 			"/>
			<polyline fill="#1676BF" points="33.055,58.312 33.055,46.025 25.383,41.599 			"/>
		</g>
	</g>
	<g>
		<g>
			<polygon fill="#3AA3D8" points="76.959,89.416 68.407,94.349 68.407,81.089 76.959,76.159 			"/>
			<polygon fill="#2585CC" points="76.079,88.942 68.407,93.374 68.407,81.089 76.079,76.662 			"/>
			<polyline fill="#1676BF" points="68.407,93.374 68.407,81.089 76.079,76.662 			"/>
		</g>
		<g>
			<polygon fill="#3AA3D8" points="88.888,82.491 80.336,87.423 80.336,74.163 88.888,69.234 			"/>
			<polygon fill="#2585CC" points="88.008,82.018 80.336,86.447 80.336,74.163 88.008,69.736 			"/>
			<polyline fill="#1676BF" points="80.336,86.447 80.336,74.163 88.008,69.736 			"/>
		</g>
		<g>
			<polygon fill="#3AA3D8" points="100.816,75.565 92.266,80.496 92.266,67.237 100.816,62.309 			"/>
			<polygon fill="#2585CC" points="99.937,75.092 92.266,79.523 92.266,67.237 99.937,62.81 			"/>
			<polyline fill="#1676BF" points="92.266,79.523 92.266,67.237 99.937,62.81 			"/>
		</g>
	</g>
	<g>
		<g>
			<polygon fill="#3AA3D8" points="76.959,68.204 68.407,73.138 68.407,59.878 76.959,54.947 			"/>
			<polygon fill="#2585CC" points="76.079,67.731 68.407,72.162 68.407,59.878 76.079,55.451 			"/>
			<polyline fill="#1676BF" points="68.407,72.162 68.407,59.878 76.079,55.451 			"/>
		</g>
		<g>
			<polygon fill="#3AA3D8" points="88.888,61.28 80.336,66.211 80.336,52.951 88.888,48.023 			"/>
			<polygon fill="#2585CC" points="88.008,60.807 80.336,65.236 80.336,52.951 88.008,48.524 			"/>
			<polyline fill="#1676BF" points="80.336,65.236 80.336,52.951 88.008,48.524 			"/>
		</g>
		<g>
			<polygon fill="#3AA3D8" points="100.816,54.354 92.266,59.285 92.266,46.025 100.816,41.097 			"/>
			<polygon fill="#2585CC" points="99.937,53.881 92.266,58.312 92.266,46.025 99.937,41.599 			"/>
			<polyline fill="#1676BF" points="92.266,58.312 92.266,46.025 99.937,41.599 			"/>
		</g>
	</g>
	<g>
		<g>
			<path fill="#84361A" d="M95.026,107.568l15.021,8.675c2.757,1.584,2.757,4.191,0,5.784l-10.017,5.784
				c-2.75,1.584-7.256,1.584-10.009,0h-0.004l-15.025-8.675L95.026,107.568z"/>
			<rect x="74.992" y="117.855" fill="#84361A" width="37.122" height="1.219"/>
			<path fill="#BA582D" d="M95.026,106.249l15.021,8.668c2.757,1.591,2.757,4.196,0,5.781l-10.017,5.789
				c-2.75,1.587-7.256,1.587-10.009,0h-0.004l-15.025-8.679L95.026,106.249z"/>
		</g>
		<g>
			<path fill="#84361A" d="M94.934,106.354l14.091,8.136c2.581,1.49,2.581,3.927,0,5.426l-9.396,5.42
				c-2.581,1.491-6.811,1.491-9.391,0l0,0l-14.091-8.133L94.934,106.354z"/>
			<rect x="76.147" y="116.002" fill="#84361A" width="34.811" height="1.146"/>
			<path fill="#BA582D" d="M94.934,105.112l14.091,8.133c2.581,1.491,2.581,3.933,0,5.426l-9.396,5.423
				c-2.581,1.489-6.811,1.489-9.391,0l0,0l-14.091-8.135L94.934,105.112z"/>
		</g>
		<g>
			<path fill="#84361A" d="M94.492,105.325l13.07,7.554c2.396,1.376,2.396,3.65,0,5.027l-8.712,5.029
				c-2.399,1.384-6.319,1.384-8.716,0h-0.003l-13.067-7.544L94.492,105.325z"/>
			<rect x="77.064" y="114.281" fill="#84361A" width="32.295" height="1.06"/>
			<path fill="#BA582D" d="M94.492,104.178l13.07,7.545c2.396,1.383,2.396,3.648,0,5.031l-8.712,5.032
				c-2.399,1.385-6.319,1.385-8.716,0h-0.003l-13.067-7.548L94.492,104.178z"/>
			<polygon opacity="0.3" fill="#84361A" points="105.087,124.892 107.667,123.403 107.667,113.938 105.087,113.379 			"/>
			<path opacity="0.3" fill="#84361A" d="M95.757,111.925c-0.501-0.29-1.323-0.29-1.824,0c-0.275,0.158-0.386,0.371-0.36,0.579
				h-0.018v1.717v14.684c0.85,0.104,1.722,0.111,2.579,0.034v-14.067c0,0,0-0.006,0-0.01v-0.641v-1.717h-0.017
				C96.143,112.296,96.032,112.083,95.757,111.925z"/>
		</g>
	</g>
	<polygon fill="#595441" points="94.462,87.448 77.064,97.492 77.064,114.202 94.462,104.158 	"/>
	<g>
		<g>
			<path fill="#5C6A6D" d="M105.087,98.011h2.58v2.355v0.013v13.985h-0.003c-0.016,0.176-0.141,0.354-0.375,0.488
				c-0.502,0.289-1.322,0.289-1.825,0c-0.235-0.135-0.36-0.313-0.375-0.488h-0.002V98.011z"/>
			<path fill="#424B4C" d="M107.546,114.517v0.012v0.036h-0.001c-0.005,0.035-0.011,0.068-0.021,0.101
				c-0.058,0.067-0.135,0.131-0.234,0.188c-0.502,0.289-1.322,0.289-1.825,0c-0.235-0.135-0.36-0.313-0.375-0.488h-0.002V98.011
				h2.459V114.517z"/>
			<path fill="#333C3D" d="M107.39,114.677c0,0,0,0.01,0,0.016v0.049h-0.001c-0.002,0.017-0.006,0.036-0.008,0.052
				c-0.026,0.02-0.058,0.041-0.092,0.06c-0.502,0.289-1.322,0.289-1.825,0c-0.235-0.135-0.36-0.313-0.375-0.488h-0.002V98.011h2.303
				V114.677z"/>
			<path fill="#212828" d="M106.398,114.924c0,0,0,0.01,0,0.019v0.06h-0.003c-0.001,0.021-0.003,0.041-0.009,0.063
				c-0.002,0-0.003,0.003-0.005,0.005c-0.332,0-0.667-0.073-0.918-0.218c-0.235-0.135-0.36-0.313-0.375-0.488h-0.002V98.011h1.312
				V114.924z"/>
			<g>
				<path fill="#6E7F82" d="M105.464,100.215c0.503,0.292,1.323,0.292,1.825,0c0.234-0.137,0.359-0.31,0.375-0.489h0.003v0.641
					v0.013v13.985h-0.003c-0.016,0.176-0.141,0.354-0.375,0.488c-0.502,0.289-1.322,0.289-1.825,0
					c-0.235-0.135-0.36-0.313-0.375-0.488h-0.002V99.726h0.002C105.104,99.905,105.229,100.078,105.464,100.215z"/>
			</g>
			<g>
				<path fill="#5C6A6D" d="M105.464,100.215c0.503,0.292,1.323,0.292,1.825,0c0.037-0.021,0.069-0.042,0.101-0.065v14.527
					c0,0,0,0.01,0,0.016v0.049h-0.001c-0.002,0.017-0.006,0.036-0.008,0.052l0,0c-0.014,0.013-0.026,0.02-0.043,0.03h-0.002
					c-0.015,0.011-0.032,0.021-0.047,0.029c-0.502,0.289-1.322,0.289-1.825,0c-0.235-0.135-0.36-0.313-0.375-0.488h-0.002V99.726
					h0.002C105.104,99.905,105.229,100.078,105.464,100.215z"/>
				<path fill="#495456" d="M106.398,114.924c0,0,0,0.01,0,0.019v0.06h-0.003c-0.001,0.021-0.003,0.041-0.009,0.063
					c-0.002,0-0.003,0.003-0.005,0.005l0,0c-0.125,0-0.25-0.009-0.369-0.03h-0.001c-0.039-0.007-0.076-0.015-0.111-0.021
					c-0.002,0-0.005-0.002-0.007-0.005c-0.034-0.006-0.068-0.015-0.101-0.023c-0.008-0.004-0.011-0.004-0.017-0.004
					c-0.03-0.012-0.062-0.021-0.089-0.032c-0.007-0.002-0.016-0.005-0.021-0.006c-0.026-0.012-0.055-0.022-0.08-0.033
					c-0.009-0.006-0.018-0.009-0.022-0.012c-0.036-0.015-0.068-0.032-0.1-0.051c-0.235-0.135-0.36-0.313-0.375-0.488h-0.002V99.726
					h0.002c0.015,0.18,0.14,0.353,0.375,0.489"/>
			</g>
			<path fill="#202828" d="M105.7,98.593c-0.083-0.03-0.163-0.065-0.236-0.109c-0.502-0.288-0.502-0.764,0-1.054
				c0.503-0.29,1.323-0.29,1.825,0c0.504,0.29,0.504,0.766,0,1.054C106.861,98.732,106.197,98.768,105.7,98.593"/>
			<path fill="#0F0402" d="M105.606,97.788"/>
		</g>
	</g>
	<g>
		<g>
			<path fill="#5C6A6D" d="M93.555,100.861h2.579v2.357v0.009v17.797h-0.002c-0.016,0.179-0.141,0.354-0.375,0.491
				c-0.501,0.288-1.323,0.288-1.824,0c-0.237-0.137-0.362-0.313-0.376-0.491h-0.002V100.861z"/>
			<path fill="#424B4C" d="M96.015,121.179v0.013v0.035h-0.003c-0.003,0.033-0.011,0.068-0.018,0.102
				c-0.06,0.066-0.139,0.131-0.237,0.188c-0.501,0.288-1.323,0.288-1.824,0c-0.237-0.137-0.362-0.313-0.376-0.491h-0.002v-20.163
				h2.46V121.179z"/>
			<path fill="#333C3D" d="M95.856,121.337c0,0.006,0,0.012,0,0.012v0.055h-0.001c-0.002,0.017-0.006,0.035-0.008,0.053
				c-0.028,0.02-0.058,0.038-0.091,0.06c-0.501,0.288-1.323,0.288-1.824,0c-0.237-0.137-0.362-0.313-0.376-0.491h-0.002v-20.163
				h2.302V121.337z"/>
			<path fill="#212828" d="M94.868,121.584c0,0.008,0,0.012,0,0.02v0.062h-0.004c-0.003,0.021-0.005,0.041-0.008,0.063
				c-0.004,0-0.006,0.001-0.007,0.003c-0.334,0-0.667-0.071-0.917-0.216c-0.237-0.137-0.362-0.313-0.376-0.491h-0.002v-20.163h1.313
				V121.584z"/>
			<g>
				<path fill="#6E7F82" d="M93.933,103.066c0.501,0.289,1.323,0.289,1.824,0c0.234-0.137,0.359-0.313,0.375-0.489h0.002v0.642
					v0.009v17.797h-0.002c-0.016,0.179-0.141,0.354-0.375,0.491c-0.501,0.288-1.323,0.288-1.824,0
					c-0.237-0.137-0.362-0.313-0.376-0.491h-0.002v-18.447h0.002C93.57,102.754,93.695,102.93,93.933,103.066z"/>
			</g>
			<g>
				<path fill="#5C6A6D" d="M93.933,103.066c0.501,0.289,1.323,0.289,1.824,0c0.036-0.021,0.068-0.044,0.1-0.065v18.336
					c0,0.006,0,0.012,0,0.012v0.055h-0.001c-0.002,0.017-0.006,0.035-0.008,0.053l0,0c-0.013,0.009-0.028,0.02-0.041,0.029h-0.003
					c-0.016,0.009-0.03,0.019-0.047,0.03c-0.501,0.288-1.323,0.288-1.824,0c-0.237-0.137-0.362-0.313-0.376-0.491h-0.002v-18.447
					h0.002C93.57,102.754,93.695,102.93,93.933,103.066z"/>
				<path fill="#495456" d="M94.868,121.584c0,0.008,0,0.012,0,0.02v0.062h-0.004c-0.003,0.021-0.005,0.041-0.008,0.063
					c-0.004,0-0.006,0.001-0.007,0.003l0,0c-0.125,0-0.25-0.011-0.369-0.028l0,0c-0.038-0.008-0.078-0.015-0.113-0.022
					c-0.002-0.002-0.003-0.002-0.006-0.005c-0.035-0.006-0.068-0.015-0.104-0.025c-0.003-0.001-0.009-0.001-0.013-0.004
					c-0.031-0.009-0.062-0.02-0.09-0.03c-0.007-0.003-0.013-0.004-0.021-0.006c-0.028-0.012-0.055-0.022-0.084-0.035
					c-0.007-0.003-0.015-0.008-0.021-0.012c-0.034-0.016-0.067-0.03-0.097-0.048c-0.237-0.137-0.362-0.313-0.376-0.491h-0.002
					v-18.447h0.002c0.014,0.177,0.139,0.353,0.376,0.489"/>
			</g>
			<path fill="#202828" d="M94.167,101.444c-0.083-0.033-0.163-0.065-0.234-0.108c-0.504-0.29-0.504-0.764,0-1.054
				c0.501-0.291,1.323-0.291,1.824,0c0.503,0.29,0.503,0.764,0,1.054C95.328,101.584,94.664,101.617,94.167,101.444"/>
			<path fill="#0F0402" d="M94.073,100.641"/>
		</g>
	</g>
	<g>
		<polyline fill="#934121" points="94.689,107.944 104.894,96.215 112.492,97.663 		"/>
		<polygon fill="#512212" points="111.406,98.29 96.946,106.644 105.234,97.114 		"/>
		<polygon fill="#602A14" points="111.406,98.29 96.946,106.644 103.627,98.963 		"/>
		<polygon fill="#441D11" points="104.894,96.215 87.057,85.919 76.885,97.663 94.689,107.944 		"/>
		<polyline fill="#3F1A0D" points="94.689,107.944 104.894,96.215 87.057,85.919 		"/>
		<polygon fill="#70361A" points="87.057,85.919 94.689,87.389 112.492,97.663 104.894,96.215 		"/>
		<polyline fill="#592E16" points="112.492,97.663 104.894,96.215 87.057,85.919 		"/>
		<g opacity="0.2">
			<path fill="#467DA3" d="M94.689,108.038c0.031,0,0.062-0.018,0.079-0.044c0.024-0.047,0.011-0.102-0.032-0.127L76.932,97.588
				c-0.041-0.027-0.1-0.012-0.125,0.031c-0.023,0.044-0.01,0.1,0.033,0.123l17.804,10.281
				C94.66,108.032,94.674,108.038,94.689,108.038z"/>
		</g>
		<g opacity="0.2">
			<path fill="#467DA3" d="M95.387,107.23c0.032,0,0.063-0.019,0.08-0.047c0.025-0.041,0.011-0.097-0.033-0.12L77.63,96.781
				c-0.043-0.027-0.101-0.011-0.125,0.032c-0.023,0.042-0.011,0.099,0.033,0.124l17.804,10.281
				C95.355,107.228,95.371,107.23,95.387,107.23z"/>
		</g>
		<g opacity="0.2">
			<path fill="#467DA3" d="M96.088,106.424c0.029,0,0.06-0.016,0.077-0.045c0.023-0.043,0.011-0.1-0.033-0.125l-17.806-10.28
				c-0.04-0.024-0.098-0.01-0.123,0.033c-0.023,0.042-0.011,0.099,0.033,0.125l17.805,10.279
				C96.054,106.421,96.071,106.424,96.088,106.424z"/>
		</g>
		<g opacity="0.2">
			<path fill="#467DA3" d="M96.784,105.616c0.031,0,0.063-0.016,0.079-0.046c0.023-0.043,0.01-0.098-0.034-0.122L79.026,95.167
				c-0.042-0.026-0.099-0.012-0.125,0.034c-0.024,0.042-0.009,0.097,0.032,0.124l17.806,10.281
				C96.753,105.612,96.768,105.616,96.784,105.616z"/>
		</g>
		<g opacity="0.2">
			<path fill="#467DA3" d="M97.48,104.81c0.033,0,0.063-0.015,0.081-0.046c0.023-0.04,0.01-0.097-0.033-0.12L79.725,94.36
				c-0.042-0.023-0.1-0.01-0.125,0.031c-0.025,0.046-0.011,0.103,0.032,0.127l17.805,10.279
				C97.449,104.807,97.468,104.81,97.48,104.81z"/>
		</g>
		<g opacity="0.2">
			<path fill="#467DA3" d="M98.181,104.003c0.032,0,0.061-0.015,0.079-0.045c0.023-0.043,0.009-0.097-0.033-0.125L80.421,93.554
				c-0.04-0.025-0.097-0.011-0.123,0.033c-0.024,0.044-0.011,0.098,0.032,0.125l17.805,10.279
				C98.149,104,98.166,104.003,98.181,104.003z"/>
		</g>
		<g opacity="0.2">
			<path fill="#467DA3" d="M98.88,103.198c0.028,0,0.06-0.019,0.077-0.045c0.024-0.046,0.01-0.1-0.032-0.125L81.121,92.747
				c-0.042-0.027-0.099-0.009-0.125,0.034c-0.024,0.043-0.011,0.1,0.032,0.123l17.806,10.281
				C98.848,103.191,98.863,103.198,98.88,103.198z"/>
		</g>
		<g opacity="0.2">
			<path fill="#467DA3" d="M99.576,102.39c0.033,0,0.062-0.015,0.078-0.045c0.025-0.042,0.01-0.098-0.031-0.122L81.818,91.94
				c-0.041-0.024-0.1-0.009-0.125,0.032c-0.025,0.045-0.01,0.099,0.034,0.125l17.803,10.28
				C99.547,102.387,99.562,102.39,99.576,102.39z"/>
		</g>
		<g opacity="0.2">
			<path fill="#467DA3" d="M100.276,101.586c0.031,0,0.06-0.018,0.077-0.048c0.025-0.043,0.011-0.097-0.032-0.125L82.517,91.134
				c-0.043-0.025-0.098-0.01-0.126,0.035c-0.022,0.042-0.01,0.099,0.034,0.121l17.806,10.284
				C100.245,101.581,100.259,101.586,100.276,101.586z"/>
		</g>
		<g opacity="0.2">
			<path fill="#467DA3" d="M100.973,100.777c0.033,0,0.062-0.015,0.079-0.045c0.023-0.046,0.009-0.1-0.034-0.125L83.215,90.323
				c-0.042-0.021-0.097-0.009-0.125,0.038c-0.023,0.044-0.011,0.1,0.034,0.123l17.804,10.281
				C100.943,100.774,100.958,100.777,100.973,100.777z"/>
		</g>
		<g opacity="0.2">
			<path fill="#467DA3" d="M101.67,99.973c0.034,0,0.063-0.019,0.08-0.048c0.025-0.042,0.009-0.099-0.033-0.125L83.913,89.52
				c-0.043-0.023-0.099-0.009-0.125,0.033c-0.024,0.045-0.011,0.102,0.036,0.126l17.801,10.278
				C101.642,99.966,101.656,99.973,101.67,99.973z"/>
		</g>
		<g opacity="0.2">
			<path fill="#467DA3" d="M102.371,99.165c0.027,0,0.058-0.018,0.077-0.044c0.026-0.047,0.009-0.102-0.033-0.128l-17.806-10.28
				c-0.04-0.023-0.095-0.01-0.122,0.036c-0.026,0.038-0.012,0.098,0.031,0.123l17.806,10.281
				C102.34,99.159,102.354,99.165,102.371,99.165z"/>
		</g>
		<g opacity="0.2">
			<path fill="#467DA3" d="M103.067,98.357c0.031,0,0.061-0.015,0.077-0.045c0.027-0.043,0.012-0.1-0.033-0.125L85.31,87.906
				c-0.044-0.023-0.097-0.009-0.125,0.036c-0.025,0.041-0.009,0.098,0.032,0.122l17.806,10.281
				C103.037,98.354,103.053,98.357,103.067,98.357z"/>
		</g>
		<g opacity="0.2">
			<path fill="#467DA3" d="M103.767,97.552c0.031,0,0.062-0.018,0.077-0.048c0.027-0.041,0.01-0.098-0.032-0.122L86.008,87.1
				c-0.042-0.021-0.099-0.009-0.124,0.036c-0.026,0.041-0.009,0.098,0.034,0.123l17.803,10.281
				C103.735,97.546,103.749,97.552,103.767,97.552z"/>
		</g>
		<g opacity="0.2">
			<path fill="#467DA3" d="M104.465,96.745c0.03,0,0.062-0.018,0.079-0.045c0.025-0.043,0.011-0.1-0.036-0.128L86.704,86.293
				c-0.042-0.022-0.097-0.008-0.124,0.035c-0.023,0.042-0.009,0.099,0.036,0.122l17.804,10.283
				C104.434,96.742,104.448,96.745,104.465,96.745z"/>
		</g>
	</g>
</g>
</svg>
